PathFileType	4	(X/Y/Z)	C:/Users/opensim2020/Desktop/walking_exp_matlab/subject03_walking09_straight_04.trc	
DataRate	CameraRate	NumFrames	NumMarkers	Units	OrigDataRate	OrigDataStartFrame	OrigNumFrames	
100.00	100.00	7	47	mm	100.00	4009	353	
Frame#	Time	LFHD			RFHD			LBHD			RBHD			C7			T10			CLAV			STRN			RBAK			LSHO			LUPA			LELB			LFRM			LWRA			LWRB			LFIN			RSHO			RUPA			RELB			RFRM			RWRA			RWRB			RFIN			LASI			RASI			LPSI			RPSI			LTHI			LKNE			LTIB			LANK			LHEE			LTOE			RTHI			RKNE			RTIB			RANK			RHEE			RTOE			*39			*40			*41			*42			*43			*44			*45			*46			
		X1	Y1	Z1	X2	Y2	Z2	X3	Y3	Z3	X4	Y4	Z4	X5	Y5	Z5	X6	Y6	Z6	X7	Y7	Z7	X8	Y8	Z8	X9	Y9	Z9	X10	Y10	Z10	X11	Y11	Z11	X12	Y12	Z12	X13	Y13	Z13	X14	Y14	Z14	X15	Y15	Z15	X16	Y16	Z16	X17	Y17	Z17	X18	Y18	Z18	X19	Y19	Z19	X20	Y20	Z20	X21	Y21	Z21	X22	Y22	Z22	X23	Y23	Z23	X24	Y24	Z24	X25	Y25	Z25	X26	Y26	Z26	X27	Y27	Z27	X28	Y28	Z28	X29	Y29	Z29	X30	Y30	Z30	X31	Y31	Z31	X32	Y32	Z32	X33	Y33	Z33	X34	Y34	Z34	X35	Y35	Z35	X36	Y36	Z36	X37	Y37	Z37	X38	Y38	Z38	X39	Y39	Z39	X40	Y40	Z40	X41	Y41	Z41	X42	Y42	Z42	X43	Y43	Z43	X44	Y44	Z44	X45	Y45	Z45	X46	Y46	Z46	X47	Y47	Z47	

265	2.640	1515.81055	-577.19965	1608.03223	1383.49414	-559.41956	1611.27441	1528.25366	-447.91351	1569.90356	1397.44812	-435.50607	1572.51892	1465.23340	-404.42398	1410.34021	1462.38635	-359.21863	1097.74438	1462.89172	-523.03320	1328.69629	1463.53076	-559.63416	1162.39111	1364.26282	-344.14465	1239.50110	1620.48193	-477.81366	1364.33997	1686.72766	-437.59079	1167.83301	1697.83057	-425.43896	1044.70471	1697.08240	-437.47714	915.01801	1665.34961	-446.32751	796.71588	1714.05237	-419.48096	802.92340	1703.61011	-426.96664	719.13452	1304.20300	-480.49948	1356.28845	1226.94092	-512.33423	1140.01575	1213.92700	-551.47559	1034.73865	1215.84424	-605.10437	909.07385	1256.29480	-658.31726	827.37775	1210.78113	-632.65515	813.36230	1220.12549	-675.66278	754.42651	1569.45056	-531.76556	930.33826	1331.72607	-514.98407	929.11115	1533.69714	-365.64441	950.16260	1383.78271	-357.49780	963.11426	1617.60876	-530.57629	630.70349	1571.81592	-586.78912	464.20630	1575.70886	-590.80859	274.62299	1547.28760	-640.90472	69.96560	1509.06555	-607.65674	30.77342	1512.51794	-794.21851	45.11089	1299.91089	-415.94968	641.05164	1335.91821	-392.90182	462.41629	1337.50806	-290.82138	296.30786	1388.45410	-195.04820	102.16219	1440.06030	-145.68195	82.19976	1398.08582	-323.78824	36.22208	1475.68372	-492.35825	1672.82642																					 
266	2.650	1516.63049	-585.47229	1608.83801	1384.43372	-567.43982	1612.07410	1529.33826	-456.32492	1570.35706	1398.71692	-443.65466	1573.00952	1466.53748	-413.10773	1410.64099	1463.68347	-368.35706	1098.13916	1463.70959	-531.73798	1329.28845	1464.06641	-568.58154	1163.06812	1366.19934	-352.11493	1239.85486	1621.57593	-487.36285	1364.46765	1687.50378	-447.94415	1167.70667	1698.40100	-436.03458	1044.52930	1697.17676	-447.91507	914.78009	1665.04712	-456.16675	796.53894	1714.05042	-429.80731	802.66113	1703.29663	-436.85803	718.89642	1305.14612	-488.44000	1356.58972	1228.24634	-519.40259	1139.98572	1215.23364	-558.35974	1034.50024	1217.37402	-611.74860	908.75922	1257.84753	-665.11090	827.13702	1212.49927	-639.19293	813.00452	1221.97400	-682.06665	754.06244	1569.89502	-541.36774	931.07806	1332.10254	-523.95758	929.09473	1534.97314	-375.11243	951.34497	1384.80872	-366.78845	963.17566	1617.60974	-539.78864	632.20306	1571.87830	-592.99860	464.67123	1576.27454	-595.72925	274.93170	1546.94971	-644.35742	69.78375	1509.72302	-608.89496	32.60848	1510.28528	-796.82959	42.76599	1300.36829	-424.85211	640.95868	1335.94861	-401.60629	462.29822	1337.27112	-296.57074	297.74466	1387.72998	-196.97061	105.57889	1439.38904	-147.36182	86.59870	1397.90259	-324.19519	36.16192	1476.14050	-499.71780	1673.12622																					 
267	2.660	1517.52954	-593.81158	1609.83289	1385.30212	-575.43524	1612.98779	1530.51770	-464.79614	1570.98376	1399.90662	-451.70636	1573.64832	1468.37524	-421.62256	1411.61157	1465.05151	-377.10245	1098.99146	1464.52185	-540.31262	1330.09558	1464.67102	-577.60059	1163.95642	1367.94568	-360.43811	1240.22522	1622.66528	-496.94662	1364.91577	1688.37354	-458.48779	1167.87561	1699.03687	-446.86429	1044.60217	1697.26904	-458.53989	914.77069	1664.72388	-466.11124	796.52368	1714.04895	-440.39832	802.66968	1703.01611	-447.07632	718.90051	1306.09106	-496.46243	1357.23499	1229.64197	-526.56714	1140.24719	1216.65674	-565.16516	1034.53210	1218.95068	-618.11481	908.56073	1259.33826	-671.63452	827.01373	1214.29736	-645.24658	812.72485	1223.71558	-688.09619	753.74139	1570.42004	-550.69342	932.23279	1332.70581	-533.08380	929.25012	1535.83655	-384.43396	952.81268	1385.58167	-376.08270	963.46515	1617.35254	-548.99487	634.05786	1571.99500	-599.06879	465.26328	1577.05127	-601.11707	275.32333	1546.17163	-646.50958	69.63823	1509.71423	-609.87897	33.61185	1512.05273	-799.09149	41.20436	1300.88831	-434.02338	641.09637	1335.89807	-410.81125	462.29483	1337.04956	-302.76105	299.48248	1386.90540	-199.39841	109.20087	1438.73633	-149.51695	91.49720	1397.68860	-324.65128	36.08197	1477.31116	-507.83801	1673.84338																					 
268	2.670	1518.38440	-602.12762	1610.90942	1386.22742	-583.40875	1614.06750	1531.64978	-473.32367	1571.75464	1401.10229	-459.83859	1574.40491	1469.77856	-430.17380	1412.51306	1465.76465	-386.47223	1099.46033	1465.30432	-548.98187	1331.08032	1465.25781	-586.48492	1164.98694	1369.80261	-368.73401	1241.02576	1623.64526	-506.43610	1365.64709	1689.21655	-469.17703	1168.34973	1699.60107	-457.97153	1044.96106	1697.36426	-469.50555	915.08246	1664.58350	-476.40518	796.90948	1714.09180	-451.34149	802.92908	1702.78210	-457.74792	719.18939	1307.14087	-504.21185	1358.13892	1231.05994	-533.65057	1140.66467	1218.20251	-571.81390	1034.79199	1220.59937	-624.29321	908.55835	1260.91907	-677.60608	826.84204	1216.10266	-650.91534	812.53235	1225.53491	-693.37585	753.48944	1571.05652	-559.92120	933.81433	1333.48169	-542.30603	929.62689	1536.48108	-393.84662	954.32623	1386.19177	-385.45352	963.90405	1617.08643	-557.79645	635.88965	1572.21313	-605.65320	466.23291	1577.91650	-606.56866	275.84964	1545.63940	-647.57861	69.69043	1509.66260	-610.36584	34.27917	1513.52563	-800.51935	39.96942	1301.37366	-443.52652	641.16895	1335.74536	-420.57144	462.36240	1336.64075	-309.36752	301.36526	1386.03772	-202.27997	113.17108	1438.05176	-152.31790	96.86889	1397.45886	-325.19797	36.03342	1478.87317	-516.41492	1674.99963																					 
269	2.680	1519.30127	-610.42938	1612.11804	1387.16223	-591.44849	1615.34949	1532.80908	-481.78299	1572.67932	1402.36230	-468.01447	1575.28699	1471.11816	-438.75711	1413.53040	1466.49731	-395.50027	1100.34119	1466.19104	-557.64685	1332.26917	1465.89380	-595.63019	1166.37329	1371.44617	-377.18405	1241.78589	1624.63989	-515.87640	1366.63428	1689.97876	-479.92960	1169.09644	1700.07922	-469.30280	1045.58313	1697.47217	-480.79672	915.67755	1664.15735	-487.23834	797.51605	1714.21448	-462.72406	803.53882	1702.56458	-468.95087	719.79828	1308.10938	-512.34619	1359.14624	1232.57239	-540.77661	1141.39319	1219.85486	-578.44666	1035.20740	1222.28003	-630.18683	908.70770	1262.50500	-683.28186	826.84277	1217.89563	-656.24036	812.49542	1227.25549	-698.65814	753.30450	1571.91113	-569.47931	935.75543	1334.41858	-551.68158	930.18854	1536.93567	-403.17673	956.19446	1386.65784	-394.98593	964.52026	1616.83325	-566.33252	637.88416	1572.48157	-612.60455	467.49048	1579.25952	-611.51556	276.56973	1545.26196	-648.32672	69.65934	1509.62939	-610.56860	34.20630	1512.48071	-801.15564	39.27977	1302.05481	-453.66312	641.35846	1335.43811	-431.14575	462.53162	1336.14380	-316.51187	303.55472	1385.26367	-205.59741	117.74367	1437.47742	-155.51535	102.85838	1397.28149	-325.83203	35.97103	1480.00061	-524.51886	1676.08545																					 
270	2.690	1520.17358	-618.79181	1613.44739	1388.09790	-599.41718	1616.73218	1534.07288	-490.08829	1573.84875	1403.62598	-476.06384	1576.50537	1472.32983	-447.25797	1414.55188	1467.22583	-404.52280	1101.35168	1466.98132	-566.15784	1333.61499	1466.54395	-604.57861	1167.78394	1373.05359	-385.76108	1242.57788	1625.59131	-525.18549	1367.87366	1690.78564	-490.73798	1170.08594	1700.54944	-480.67102	1046.48560	1697.62256	-492.29605	916.55627	1664.05701	-498.33798	798.43524	1714.43616	-474.48618	804.38037	1702.35583	-480.68869	720.82373	1309.09851	-520.25098	1360.42651	1234.16943	-547.87286	1142.31580	1221.58118	-584.97821	1035.91260	1223.98608	-635.89569	909.05280	1264.07678	-688.66748	826.93182	1219.66882	-661.27124	812.63879	1228.95129	-703.25684	753.19092	1572.94519	-579.05798	937.80225	1335.67334	-561.22418	931.12793	1537.31946	-412.55267	958.01367	1387.07874	-404.39355	965.40192	1616.69958	-574.59680	639.93420	1572.85974	-619.57574	468.89264	1579.82178	-615.69446	277.37238	1545.24731	-648.76617	69.85828	1510.03687	-610.40192	34.50842	1511.33606	-801.47656	38.89934	1302.40112	-464.05243	641.54913	1334.93176	-442.55820	462.66830	1335.38074	-324.17944	306.06680	1384.63306	-209.60590	122.65739	1437.24109	-159.49524	109.59229	1397.17139	-326.45944	35.99476	1481.14612	-532.58112	1677.30273																					 
271	2.700	1521.05627	-627.06586	1614.85156	1389.02966	-607.39868	1618.21277	1535.22864	-498.45792	1575.12732	1404.92017	-484.07291	1577.91431	1473.82275	-455.42859	1415.79688	1467.88184	-413.51401	1102.46387	1467.84192	-574.70215	1335.14246	1467.24268	-613.47821	1169.44373	1374.38477	-393.95993	1243.81689	1626.48792	-534.35162	1369.33716	1691.58228	-501.57492	1171.27588	1701.08081	-492.25317	1047.61230	1697.85315	-504.10675	917.72760	1664.22644	-509.79669	799.63544	1714.85583	-486.59952	805.51361	1702.32935	-492.60995	721.88647	1310.15747	-528.15210	1361.98535	1235.77405	-554.92523	1143.41675	1223.40552	-591.40912	1036.81494	1225.65210	-641.40546	909.54462	1265.60071	-693.84137	827.10291	1221.38794	-666.10907	812.95941	1230.61584	-707.58563	753.13092	1574.02405	-588.35101	939.84357	1336.88525	-570.59540	932.10681	1537.79150	-421.74374	959.99744	1387.64392	-413.76892	966.50031	1616.99365	-582.65979	641.84656	1573.28247	-626.00000	470.26178	1580.24255	-619.29102	278.12848	1545.22302	-648.93921	70.02705	1510.21228	-610.42749	34.52661	1511.79980	-801.79199	38.56740	1302.81372	-475.01138	641.86139	1334.17944	-454.89413	462.80069	1335.17188	-332.35992	308.92877	1384.03796	-214.22594	128.00800	1437.22644	-164.25743	116.96525	1397.10437	-327.19531	36.09052	1482.31799	-540.73956	1678.62830																					 
